{"title":"Kung.Fu.Panda.3.2016.HC.WEBRip.x264-STUTTERSHIT","uid":13690313,"size":877023408,"categoryP":"video","categoryS":"movies","magnet":"?xt=urn:btih:dde969556f842ba7d029c8780c93f12c015b6b8b&amp;dn=Kung.Fu.Panda.3.2016.HC.WEBRip.x264-STUTTERSHIT&amp;tr=udp%3A%2F%2Ftracker.leechers-paradise.org%3A6969&amp;tr=udp%3A%2F%2Fzer0day.ch%3A1337&amp;tr=udp%3A%2F%2Fopen.demonii.com%3A1337&amp;tr=udp%3A%2F%2Ftracker.coppersurfer.tk%3A6969&amp;tr=udp%3A%2F%2Fexodus.desync.com%3A6969","seeders":0,"leechers":3,"uploader":"roflcopter2110","files":3,"time":1456608399,"description":"Kung.Fu.Panda.3.2016.HC.WEBRip.x264-STUTTERSHIT\r\n\r\nMediainfo :\r\n\r\nVideo\r\nID : 1\r\nFormat : AVC\r\nFormat/Info : Advanced Video Codec\r\nFormat profile :   \r\nFormat settings, CABAC : Yes\r\nFormat settings, ReFrames : 5 frames\r\nCodec ID : avc1\r\nCodec ID/Info : Advanced Video Coding\r\nDuration : 1h 35mn\r\nBit rate : 1 100 Kbps\r\nWidth : 720 pixels\r\nHeight : 304 pixels\r\nDisplay aspect ratio : 2.40:1\r\nOriginal display aspect ratio : 2.40:1\r\nFrame rate mode : Constant\r\nFrame rate : 29.970 (29970/1000) fps\r\nColor space : YUV\r\nChroma subsampling : 4:2:0\r\nBit depth : 8 bits\r\nScan type : Progressive\r\nBits/(Pixel*Frame) : 0.168\r\nStream size : 743 MiB (89%)\r\nTitle : Kung.Fu.Panda.3.2016.HC.WEBRip.x264-STUTTERSHIT\r\nWriting library : x264 core 148 r2601 a0cd7d3\r\nEncoding settings : cabac=1 / ref=5 / deblock=1:-2:-2 / analyse=0x3:0x113 / me=umh / subme=8 / psy=1 / psy_rd=0.90:0.00 / mixed_ref=1 / me_range=16 / chroma_me=1 / trellis=1 / 8x8dct=1 / cqm=0 / deadzone=21,11 / fast_pskip=1 / chroma_qp_offset=-2 / threads=8 / lookahead_threads=2 / sliced_threads=0 / nr=0 / decimate=1 / interlaced=0 / bluray_compat=0 / constrained_intra=0 / bframes=3 / b_pyramid=2 / b_adapt=2 / b_bias=0 / direct=3 / weightb=1 / open_gop=0 / weightp=2 / keyint=250 / keyint_min=25 / scenecut=40 / intra_refresh=0 / rc_lookahead=50 / rc=abr / mbtree=1 / bitrate=1100 / ratetol=1.0 / qcomp=0.60 / qpmin=0 / qpmax=69 / qpstep=4 / vbv_maxrate=31250 / vbv_bufsize=31250 / nal_hrd=none / filler=0 / ip_ratio=1.40 / aq=1:1.00\r\nLanguage : English\r\n\r\nAudio\r\nID : 2\r\nFormat : AAC\r\nFormat/Info : Advanced Audio Codec\r\nFormat profile : LC\r\nCodec ID : 40\r\nDuration : 1h 35mn\r\nDuration_LastFrame : 32ms\r\nBit rate mode : Variable\r\nBit rate : 128 Kbps\r\nMaximum bit rate : 31.3 Mbps\r\nChannel(s) : 2 channels\r\nChannel positions : Front: L R\r\nSampling rate : 48.0 KHz\r\nFrame rate : 46.875 fps (1024 spf)\r\nCompression mode : Lossy\r\nStream size : 87.0 MiB (10%)\r\nTitle : Kung.Fu.Panda.3.2016.HC.WEBRip.x264-STUTTERSHIT\r\nLanguage : English\r\nDefault : Yes\r\nAlternate group : 1","torrent":{"xt":"urn:btih:dde969556f842ba7d029c8780c93f12c015b6b8b","amp;dn":"Kung.Fu.Panda.3.2016.HC.WEBRip.x264-STUTTERSHIT","amp;tr":["udp%3A%2F%2Ftracker.leechers-paradise.org%3A6969","udp%3A%2F%2Fzer0day.ch%3A1337","udp%3A%2F%2Fopen.demonii.com%3A1337","udp%3A%2F%2Ftracker.coppersurfer.tk%3A6969","udp%3A%2F%2Fexodus.desync.com%3A6969"],"infoHash":"dde969556f842ba7d029c8780c93f12c015b6b8b","infoHashBuffer":{"type":"Buffer","data":[221,233,105,85,111,132,43,167,208,41,200,120,12,147,241,44,1,91,107,139]},"announce":[],"urlList":[]}}